<?xml version="1.0" standalone="no"?>
<!DOCTYPE svg PUBLIC "-//W3C//DTD SVG 20010904//EN"
 "http://www.w3.org/TR/2001/REC-SVG-20010904/DTD/svg10.dtd">
<svg version="1.0" xmlns="http://www.w3.org/2000/svg"
 width="500.000000pt" height="500.000000pt" viewBox="0 0 500.000000 500.000000"
 preserveAspectRatio="xMidYMid meet">
<metadata>
Created by potrace 1.11, written by Peter Selinger 2001-2013
</metadata>
<g transform="translate(0.000000,500.000000) scale(0.100000,-0.100000)"
fill="#000000" stroke="none">
<path d="M970 4640 c-24 -12 -58 -31 -75 -44 -16 -13 -54 -35 -83 -50 l-53
-27 3 -52 c3 -49 4 -52 38 -60 19 -5 64 -8 100 -7 84 3 86 3 147 20 76 20 111
61 134 152 10 40 16 74 13 77 -2 3 -44 6 -92 8 -72 3 -95 0 -132 -17z m-5
-140 c0 -22 -29 -18 -33 3 -3 14 1 18 15 15 10 -2 18 -10 18 -18z"/>
<path d="M1345 4640 c-110 -4 -126 -7 -104 -17 31 -14 217 -9 233 7 5 5 8 11
5 12 -2 2 -62 1 -134 -2z"/>
<path d="M2325 4611 c-3 -6 6 -18 20 -28 14 -10 44 -33 66 -50 23 -18 52 -33
65 -33 14 0 28 -9 35 -22 15 -27 49 -57 67 -58 22 0 -7 42 -85 124 -70 72 -75
76 -117 76 -25 0 -47 -4 -51 -9z"/>
<path d="M3040 4381 c0 -27 15 -34 31 -15 10 13 10 17 -2 25 -22 13 -29 11
-29 -10z"/>
<path d="M3113 4358 c4 -12 0 -19 -14 -23 -10 -4 -19 -15 -19 -26 0 -26 11
-23 37 10 21 27 21 30 6 42 -15 12 -16 12 -10 -3z"/>
<path d="M2868 4327 c-6 -30 1 -47 18 -47 15 0 18 27 8 54 -9 23 -21 20 -26
-7z"/>
<path d="M1709 4338 c0 -2 -3 -33 -6 -70 -4 -65 -4 -67 20 -73 53 -14 62 -5
65 66 l3 66 -32 7 c-34 6 -49 8 -50 4z"/>
<path d="M715 4318 c-16 -6 -36 -12 -42 -14 -18 -5 30 -54 51 -54 20 0 54 16
79 38 17 15 17 16 -5 29 -27 14 -42 15 -83 1z"/>
<path d="M1580 4300 c0 -5 5 -10 10 -10 6 0 10 5 10 10 0 6 -4 10 -10 10 -5 0
-10 -4 -10 -10z"/>
<path d="M2495 4292 c-30 -18 -63 -52 -52 -52 4 0 22 7 41 16 21 10 44 14 60
10 28 -7 34 -13 103 -89 50 -57 73 -61 73 -14 0 42 -66 109 -129 132 -55 19
-60 19 -96 -3z"/>
<path d="M1420 4221 c0 -22 -4 -43 -10 -46 -16 -10 -12 -45 11 -115 17 -50 19
-67 10 -81 -15 -25 -14 -54 4 -89 16 -31 29 -37 40 -20 4 6 13 5 25 -3 27 -16
25 -27 -4 -27 -14 0 -28 -4 -31 -10 -10 -17 -38 -12 -31 5 3 10 -20 46 -65
100 -76 91 -79 92 -143 50 -14 -9 -39 -15 -58 -13 -24 2 -33 -1 -34 -12 -1 -8
-2 -20 -3 -27 0 -6 -22 -15 -48 -19 -62 -9 -80 -18 -98 -54 -15 -30 -15 -30
13 -30 31 0 117 -52 132 -80 5 -10 13 -67 16 -127 l7 -110 -49 -6 c-27 -3 -69
-3 -94 0 -35 4 -49 1 -59 -11 -16 -19 -70 -21 -77 -2 -5 13 -54 11 -54 -3 0
-4 13 -22 29 -40 l29 -32 133 5 c74 3 137 5 141 5 4 1 5 9 2 19 -5 15 -4 15
10 -2 9 -11 22 -16 31 -12 9 3 61 1 116 -6 86 -9 102 -9 117 4 29 26 80 48
110 48 16 0 49 -13 73 -30 45 -30 65 -38 54 -20 -11 17 14 47 44 53 19 4 34
16 43 33 7 15 23 34 35 42 21 13 23 12 32 -10 5 -13 16 -30 25 -37 23 -19 10
-31 -35 -31 -32 0 -39 -3 -39 -20 0 -11 -1 -23 -2 -27 -5 -13 86 -21 104 -10
9 6 21 21 27 34 14 30 45 29 65 -2 15 -23 23 -25 86 -25 68 0 70 1 70 25 0 37
35 33 56 -6 14 -27 19 -30 46 -25 17 3 52 6 79 6 42 0 49 3 49 20 0 11 -1 20
-3 20 -1 0 -17 -4 -34 -9 -31 -9 -33 -8 -31 15 3 27 8 30 26 12 10 -10 15 -10
21 1 5 8 16 11 24 8 21 -8 29 19 12 37 -21 20 -19 26 10 26 29 0 43 -36 26
-68 -14 -26 -6 -32 40 -32 29 0 37 3 33 14 -3 8 1 28 10 44 19 36 13 43 -27
31 -36 -10 -62 5 -27 16 15 5 19 12 15 23 -11 29 -23 101 -17 107 3 3 15 5 27
5 13 0 28 6 34 14 14 17 4 25 -59 50 -25 10 -56 23 -70 30 -29 14 -59 83 -59
138 -1 20 -5 40 -11 43 -5 3 -10 28 -10 56 0 37 -4 49 -15 49 -8 0 -15 -9 -15
-20 0 -10 -9 -24 -19 -29 -15 -9 -20 -6 -26 12 -6 19 -8 16 -15 -18 -9 -47 -7
-53 26 -66 24 -9 61 -75 49 -87 -3 -3 -20 8 -38 24 -17 16 -44 40 -58 52 l-27
23 -36 -32 -37 -32 -28 27 c-28 27 -47 23 -36 -6 3 -8 -3 -25 -13 -38 l-19
-23 -22 22 c-27 27 -62 24 -76 -6 -16 -37 -28 -26 -22 20 6 41 5 42 -24 43
-17 1 -29 -4 -29 -11 0 -7 -8 -23 -18 -35 -17 -21 -21 -21 -60 -9 -28 8 -42
18 -42 29 0 13 -6 16 -26 12 -30 -6 -41 -26 -24 -47 16 -19 6 -32 -31 -37 -25
-4 -38 2 -66 27 -31 29 -33 33 -23 61 l12 29 13 -32 c12 -29 41 -53 63 -53 5
0 7 20 4 45 -3 35 -1 46 12 51 22 9 20 37 -5 60 -20 18 -21 18 -31 1 -6 -12
-13 -15 -21 -9 -7 6 -23 12 -36 14 -30 4 -41 28 -12 28 11 0 23 5 26 10 7 12
-46 180 -57 180 -4 0 -8 -4 -8 -10 0 -5 -7 -10 -15 -10 -8 0 -15 5 -15 10 0 6
-4 10 -10 10 -5 0 -10 -18 -10 -39z m-154 -336 c9 -13 13 -29 10 -34 -9 -14
34 -41 66 -41 31 0 34 -8 15 -35 -11 -15 -22 -17 -55 -11 -23 3 -42 2 -42 -3
0 -11 24 -21 50 -21 17 0 30 -35 30 -82 0 -17 -3 -18 -15 -8 -8 7 -15 19 -15
26 0 26 -46 21 -77 -9 -25 -22 -29 -13 -12 30 6 15 11 56 12 90 1 53 -3 67
-23 88 -19 20 -21 27 -10 39 15 19 42 7 66 -29z m534 -62 c-1 -55 -18 -117
-36 -130 -15 -11 -21 -10 -40 8 l-23 21 -13 -21 c-7 -12 -16 -21 -20 -21 -16
0 -7 30 18 59 14 17 24 38 20 46 -6 18 51 60 87 64 4 1 7 -11 7 -26z m238 21
c12 -4 22 -12 22 -19 0 -8 15 -25 33 -39 23 -19 29 -28 19 -34 -9 -6 -1 -17
28 -41 l40 -32 -36 -71 -36 -71 -45 7 c-25 3 -62 6 -82 6 -40 0 -75 18 -53 27
19 8 14 48 -9 69 -41 37 -43 52 -12 120 33 75 67 95 131 78z m-459 -68 c7 -8
26 -18 42 -21 34 -8 38 -31 10 -61 -10 -11 -18 -31 -17 -44 1 -30 -25 -38 -48
-15 -20 20 -21 52 -1 57 26 6 -1 30 -41 37 -41 7 -57 28 -27 37 10 3 25 9 33
14 22 13 36 12 49 -4z m-154 -66 c3 -5 1 -10 -4 -10 -6 0 -11 5 -11 10 0 6 2
10 4 10 3 0 8 -4 11 -10z m935 -70 c0 -5 -7 -10 -15 -10 -8 0 -15 5 -15 10 0
6 7 10 15 10 8 0 15 -4 15 -10z m-992 -52 c7 -15 28 -35 47 -44 41 -19 45 -41
10 -50 -14 -3 -34 -17 -45 -31 -23 -30 -31 -26 -56 28 -16 36 -16 43 -4 48 8
3 -7 10 -35 17 l-50 11 37 17 c20 8 40 21 43 26 11 18 39 6 53 -22z m310 -23
c0 -39 -19 -47 -48 -20 -16 14 -21 14 -53 -1 -19 -9 -42 -14 -51 -11 -14 6
-14 9 2 37 13 22 24 30 47 31 17 0 39 4 50 8 32 13 53 -4 53 -44z"/>
<path d="M2835 4240 c-16 -17 -16 -20 -2 -20 28 0 46 11 40 26 -7 19 -17 18
-38 -6z"/>
<path d="M1640 4156 c0 -14 5 -28 11 -31 6 -4 8 -13 5 -20 -2 -7 2 -16 11 -19
11 -5 14 -14 9 -38 -5 -24 0 -41 19 -69 13 -21 33 -43 44 -48 17 -10 19 -6 23
62 6 101 2 114 -42 134 -21 10 -41 26 -43 36 -8 27 -37 21 -37 -7z"/>
<path d="M3080 4169 c-19 -5 -43 -14 -52 -19 -10 -5 -24 -7 -33 -4 -9 4 -15 1
-15 -9 0 -8 -3 -35 -6 -60 l-6 -45 61 5 61 6 14 -34 c22 -51 57 -79 113 -88
62 -10 84 2 72 38 -10 28 -83 76 -99 66 -6 -3 -10 -1 -10 5 0 6 12 15 26 20
24 10 26 14 21 50 -9 70 -58 92 -147 69z"/>
<path d="M1766 4141 c-4 -5 -2 -12 3 -15 5 -4 12 -2 15 3 4 5 2 12 -3 15 -5 4
-12 2 -15 -3z"/>
<path d="M1920 4142 c-14 -1 -30 -13 -36 -25 -7 -12 -24 -44 -38 -71 -14 -27
-24 -51 -22 -53 9 -9 42 16 56 41 7 14 19 26 25 26 10 0 50 81 42 84 -1 1 -13
0 -27 -2z"/>
<path d="M2160 4123 c0 -13 5 -23 10 -23 13 0 13 11 0 30 -8 12 -10 11 -10 -7z"/>
<path d="M1948 4077 c-10 -23 -18 -50 -18 -60 0 -18 27 -77 35 -77 3 0 16 22
30 50 36 71 33 110 -10 124 -16 5 -23 -2 -37 -37z"/>
<path d="M3464 4089 c-8 -13 25 -38 49 -39 10 0 27 -5 38 -11 11 -5 27 -9 35
-7 9 2 -14 17 -50 35 -41 20 -68 29 -72 22z"/>
<path d="M1066 4062 c-8 -13 5 -53 15 -46 12 7 12 41 0 49 -5 3 -12 2 -15 -3z"/>
<path d="M2310 4041 c0 -5 5 -13 10 -16 6 -3 10 -2 10 4 0 5 -4 13 -10 16 -5
3 -10 2 -10 -4z"/>
<path d="M3002 3955 c-7 -15 -20 -25 -32 -25 -18 0 -20 -6 -20 -70 0 -55 3
-71 18 -79 14 -9 13 -10 -11 -11 -39 0 -71 -18 -59 -33 5 -7 12 -23 15 -37 5
-18 17 -28 46 -37 23 -7 48 -13 57 -13 16 0 16 -1 0 -19 -12 -13 -15 -27 -10
-45 3 -14 3 -34 -2 -43 -4 -10 -8 -34 -9 -53 -1 -19 -4 -41 -6 -49 -2 -8 4
-17 14 -19 10 -2 17 2 17 10 0 19 82 66 88 50 9 -28 22 -8 22 34 0 40 2 45 15
34 8 -7 15 -18 15 -25 0 -6 9 -20 20 -30 15 -13 17 -22 9 -36 -5 -11 -16 -19
-24 -19 -8 0 -15 -4 -15 -8 0 -5 70 -9 156 -10 l156 -1 64 61 c35 34 64 64 64
68 0 4 -14 27 -30 53 -20 30 -30 55 -28 74 3 24 0 28 -19 25 -24 -3 -53 39
-53 78 0 24 -42 70 -65 70 -9 0 -15 -9 -15 -22 0 -13 -9 -39 -19 -58 -11 -19
-24 -45 -30 -57 -6 -12 -21 -24 -33 -27 -13 -2 -48 -9 -78 -15 -30 -6 -76 -13
-101 -16 l-47 -6 -8 53 c-4 29 -7 70 -5 90 2 28 -2 40 -18 50 -22 13 -30 71
-12 82 10 6 2 56 -9 56 -4 0 -12 -11 -18 -25z m485 -331 c7 -18 -45 -77 -63
-70 -20 8 -34 -16 -34 -56 0 -27 -4 -38 -15 -38 -20 0 -35 32 -35 74 0 48 -18
46 -26 -2 -5 -32 -11 -39 -40 -48 -19 -6 -34 -7 -34 -3 0 5 7 9 15 9 26 0 18
56 -12 85 l-28 27 55 -8 c30 -4 60 -6 65 -6 6 1 27 3 48 5 25 2 42 10 53 25
18 26 42 29 51 6z"/>
<path d="M4054 3856 c-10 -8 -15 -18 -11 -22 4 -4 15 0 24 9 22 21 12 31 -13
13z"/>
<path d="M3570 3771 c0 -18 17 -20 36 -6 18 14 18 14 -8 15 -16 0 -28 -4 -28
-9z"/>
<path d="M855 3753 c-22 -4 -65 -63 -65 -89 0 -26 -25 -9 -28 20 -3 25 -6 26
-44 22 -45 -5 -88 -40 -90 -72 0 -10 2 -32 6 -49 4 -16 9 -50 11 -74 3 -44 4
-45 52 -57 26 -7 51 -13 55 -14 4 0 8 28 10 63 3 60 4 62 35 72 46 15 82 52
94 98 10 39 5 88 -9 86 -4 -1 -16 -4 -27 -6z"/>
<path d="M2695 3724 c-17 -18 -17 -45 1 -51 6 -2 22 5 35 16 20 16 21 21 10
35 -17 20 -25 20 -46 0z"/>
<path d="M445 3630 c-3 -5 1 -10 9 -10 8 0 18 -9 21 -20 3 -11 13 -20 21 -20
19 0 18 5 -10 34 -26 29 -32 31 -41 16z"/>
<path d="M407 3566 c-7 -16 1 -26 20 -26 7 0 13 9 13 20 0 23 -25 27 -33 6z"/>
<path d="M2856 3523 c4 -35 2 -40 -32 -61 -29 -18 -46 -22 -73 -17 -43 7 -113
68 -105 90 9 22 -3 19 -42 -11 -25 -19 -32 -30 -24 -39 18 -22 111 -65 141
-65 29 0 29 -1 29 -55 l0 -55 89 0 89 0 3 43 c6 65 0 85 -24 90 -18 4 -17 5 6
6 15 0 27 5 27 10 0 23 -14 41 -31 41 -11 0 -23 10 -29 24 -15 40 -28 39 -24
-1z"/>
<path d="M3683 3449 c-53 -15 -38 -29 30 -29 76 0 137 10 137 21 0 5 -17 6
-39 3 -24 -4 -41 -2 -45 5 -8 13 -38 13 -83 0z"/>
<path d="M294 3383 l-31 -4 -7 -426 c-5 -256 -4 -429 2 -435 5 -5 44 -8 88 -6
l79 3 5 187 c3 102 8 189 11 192 3 3 38 9 77 12 l72 7 0 84 0 84 -77 -2 -78
-2 -3 72 -3 73 86 -3 85 -4 0 88 0 87 -137 -2 c-76 0 -152 -3 -169 -5z"/>
<path d="M659 3385 c-3 -2 -4 -170 -2 -372 1 -202 2 -398 3 -435 l0 -68 90 0
90 0 -1 440 -1 440 -87 0 c-48 0 -90 -2 -92 -5z"/>
<path d="M4266 3383 c-3 -4 -4 -40 0 -80 4 -41 3 -73 -2 -73 -5 1 -20 7 -34
15 -33 19 -114 19 -150 0 -17 -9 -40 -34 -52 -58 -22 -40 -23 -51 -23 -297 0
-272 5 -308 49 -349 28 -26 88 -42 128 -34 15 3 40 17 54 32 l27 26 -6 -25
c-5 -19 -1 -29 13 -38 12 -7 20 -8 20 -2 0 6 31 10 75 10 l75 0 0 440 0 440
-83 0 c-46 0 -87 -3 -91 -7z m-15 -270 c18 -21 15 -428 -2 -450 -19 -22 -49
-15 -59 13 -13 34 -13 410 0 435 13 23 43 25 61 2z"/>
<path d="M1072 3259 c-85 -16 -141 -72 -161 -159 -14 -60 -14 -376 0 -439 23
-109 86 -156 209 -156 100 0 164 30 200 95 24 43 25 54 28 242 4 216 -4 281
-43 339 -40 62 -142 96 -233 78z m87 -163 c11 -23 12 -69 6 -233 -6 -179 -9
-205 -25 -213 -12 -6 -23 -5 -36 5 -17 12 -19 31 -22 220 -3 177 -1 210 13
231 20 32 46 27 64 -10z"/>
<path d="M1676 3259 c-16 -4 -41 -20 -57 -35 l-27 -26 -4 28 -3 29 -85 0 -85
0 0 -370 0 -370 88 -3 87 -3 0 290 c0 204 3 292 11 297 6 4 35 12 63 18 l51
11 3 64 c2 35 -1 67 -5 71 -4 4 -21 4 -37 -1z"/>
<path d="M1915 3261 c-70 -18 -108 -48 -141 -111 -16 -31 -18 -59 -17 -254 2
-236 8 -269 55 -328 l29 -38 -46 0 -45 0 0 -60 0 -60 89 0 90 0 3 48 3 47 65
6 c134 12 190 78 190 225 l0 64 -85 0 -85 0 0 -59 c0 -70 -26 -114 -57 -95 -9
6 -21 22 -24 35 -9 32 -11 119 -3 158 l7 32 125 -2 124 -2 3 124 c2 129 -10
189 -44 217 -58 47 -167 71 -236 53z m95 -168 c7 -21 10 -58 8 -83 l-3 -45
-40 0 -40 0 2 68 c1 71 13 97 44 97 12 0 22 -12 29 -37z"/>
<path d="M2410 3264 c-136 -45 -160 -99 -161 -365 0 -175 9 -246 36 -300 51
-97 232 -128 329 -55 61 47 76 84 76 192 l0 91 -82 5 c-46 3 -87 3 -92 0 -4
-2 -5 -32 -1 -66 8 -76 -7 -116 -42 -116 -16 0 -27 8 -34 26 -10 28 -4 64 12
64 5 0 9 7 9 15 0 8 -5 15 -10 15 -7 0 -10 60 -8 173 l3 172 24 3 c33 5 41
-12 41 -91 l0 -68 93 3 92 3 3 70 c5 119 -30 174 -140 220 -35 14 -116 19
-148 9z"/>
<path d="M3140 3259 c-54 -13 -93 -48 -125 -109 -22 -44 -23 -51 -18 -265 4
-194 8 -226 27 -274 18 -48 28 -58 70 -80 101 -52 262 -23 308 55 19 33 44
174 34 199 -4 12 -23 15 -91 15 l-85 0 0 -59 c0 -41 -5 -65 -16 -75 -19 -20
-34 -21 -34 -2 0 8 -7 16 -15 20 -12 4 -15 25 -15 96 l0 90 124 0 c104 0 125
3 130 16 10 26 7 206 -4 246 -13 45 -52 93 -91 114 -38 19 -142 26 -199 13z
m98 -141 c7 -7 12 -42 12 -85 l0 -73 -35 0 -35 0 0 59 c0 93 24 133 58 99z"/>
<path d="M3743 3255 c-18 -8 -39 -26 -45 -42 l-13 -27 -5 34 -5 35 -87 3 -88
3 -1 -183 c-2 -325 2 -553 10 -561 4 -4 43 -7 87 -5 l79 3 5 290 c3 160 9 296
13 303 12 17 54 15 61 -4 7 -19 8 -774 1 -774 -3 0 -17 7 -30 16 -19 12 -41
15 -87 12 -53 -4 -65 -9 -89 -36 -41 -46 -47 -84 -52 -322 -5 -234 2 -296 40
-347 41 -57 148 -66 197 -18 13 13 15 13 21 -5 6 -18 15 -20 96 -20 l89 0 0
68 c1 37 1 384 0 771 l-1 704 -22 40 c-35 62 -113 90 -174 62z m1 -1040 c13
-13 15 -49 15 -222 0 -114 -5 -215 -10 -225 -14 -27 -48 -22 -59 8 -6 14 -10
115 -10 224 0 167 2 201 16 214 19 20 29 20 48 1z"/>
<path d="M2756 3253 c-3 -4 -3 -213 0 -464 l7 -458 -42 21 c-87 43 -185 -5
-211 -103 -14 -50 -14 -452 -1 -524 11 -59 44 -102 89 -115 66 -18 92 -13 128
25 l33 35 3 -27 c3 -28 3 -28 92 -31 l89 -3 -6 695 c-6 552 -5 697 5 708 18
18 22 59 7 69 -8 4 -14 39 -17 93 l-5 86 -82 0 c-45 0 -85 -3 -89 -7z m-6
-1059 c6 -14 10 -115 10 -224 0 -167 -2 -201 -16 -214 -21 -22 -31 -20 -50 8
-13 21 -16 58 -16 213 0 114 4 199 11 216 14 35 48 36 61 1z"/>
<path d="M4648 3251 c-46 -15 -87 -51 -110 -94 -20 -38 -23 -61 -28 -257 -5
-189 -4 -221 12 -264 32 -89 88 -126 190 -126 88 0 137 16 179 59 55 54 61 91
57 335 l-3 213 -30 48 c-39 63 -89 89 -175 92 -36 1 -77 -2 -92 -6z m111 -135
c8 -9 11 -80 9 -236 -3 -200 -5 -224 -20 -234 -13 -8 -23 -8 -35 0 -16 10 -18
34 -21 234 -2 230 1 250 38 250 10 0 23 -6 29 -14z"/>
<path d="M1439 2490 c-61 -8 -100 -29 -127 -69 -40 -57 -45 -105 -44 -371 2
-322 3 -329 56 -383 98 -101 281 -83 346 33 22 40 25 59 28 168 l4 122 -91 0
-91 0 0 -91 c0 -97 -10 -129 -40 -129 -32 0 -33 4 -31 368 0 95 3 177 6 182 9
14 39 12 53 -2 7 -7 12 -44 12 -95 0 -96 0 -96 110 -91 l65 3 0 110 c-1 102
-3 114 -28 157 -42 72 -120 102 -228 88z"/>
<path d="M3137 2356 c-82 -23 -127 -86 -127 -180 l0 -36 84 0 83 0 7 40 c13
84 80 49 74 -39 l-3 -45 -72 -27 c-101 -37 -133 -58 -156 -103 -40 -76 -32
-262 14 -320 24 -30 88 -50 132 -40 17 3 45 21 61 38 16 17 27 23 23 14 -15
-40 1 -48 94 -48 l89 0 0 298 c0 164 -4 312 -10 331 -11 38 -51 86 -90 106
-39 20 -148 26 -203 11z m119 -493 c-7 -96 -12 -113 -35 -113 -33 0 -41 22
-41 108 0 81 1 85 32 115 l32 32 8 -30 c5 -16 7 -67 4 -112z"/>
<path d="M1757 2353 c-7 -11 -10 -217 -8 -505 l1 -238 84 0 c47 0 87 4 90 9 4
7 10 616 7 714 l-1 27 -84 0 c-47 0 -87 -3 -89 -7z"/>
<path d="M1999 2355 c-10 -9 0 -616 10 -653 18 -65 66 -102 134 -102 35 0 96
33 98 52 1 7 4 2 8 -12 7 -24 10 -25 99 -28 l92 -3 -2 373 -3 373 -87 3 -88 3
0 -280 c0 -158 -4 -291 -10 -305 -11 -30 -54 -36 -64 -10 -3 9 -6 146 -6 305
l0 289 -88 0 c-49 0 -91 -2 -93 -5z"/>
<path d="M4117 2227 c-16 -16 -17 -23 -6 -48 l12 -30 28 27 c29 28 30 43 1 60
-13 8 -21 6 -35 -9z"/>
<path d="M1552 2039 c2 -6 8 -10 13 -10 5 0 11 4 13 10 2 6 -4 11 -13 11 -9 0
-15 -5 -13 -11z"/>
<path d="M4010 1920 c0 -11 7 -20 15 -20 17 0 18 2 9 24 -9 23 -24 20 -24 -4z"/>
<path d="M4021 1768 c-1 -10 -6 -18 -13 -18 -9 0 -9 -3 -1 -11 15 -15 43 -4
43 16 0 9 -4 14 -9 11 -5 -4 -12 0 -14 6 -3 8 -6 6 -6 -4z"/>
<path d="M2317 1584 c-3 -3 -64 -5 -136 -5 -111 1 -131 -2 -131 -15 0 -19 -59
-44 -106 -44 -37 0 -124 36 -124 52 0 4 -22 8 -49 8 -42 0 -51 -3 -56 -21 -8
-24 7 -38 40 -39 18 -1 18 -2 -3 -11 -30 -11 -66 -3 -88 22 -9 10 -25 19 -34
19 -9 0 -25 7 -36 15 -28 21 -306 22 -324 0 -7 -8 -18 -15 -25 -15 -7 0 -24
-9 -39 -21 -15 -11 -38 -24 -52 -28 -19 -5 -35 -24 -58 -68 -32 -61 -32 -64
-21 -120 19 -92 38 -120 84 -128 22 -4 45 -13 52 -21 18 -21 38 -17 45 11 3
13 12 29 20 36 22 18 17 29 -22 45 -26 11 -40 12 -47 5 -13 -13 -77 -15 -77
-2 0 5 -8 12 -19 16 -15 5 -17 13 -13 58 4 53 24 97 43 97 25 0 53 -41 54 -80
1 -49 7 -55 30 -30 14 16 31 20 81 20 55 0 65 -3 82 -25 23 -29 29 -30 53 -9
23 21 49 11 49 -18 1 -45 64 -98 85 -71 6 7 31 16 58 19 43 6 47 5 47 -13 0
-12 8 -23 18 -25 15 -4 17 -13 14 -42 -4 -37 -18 -48 -28 -21 -4 8 -12 15 -18
15 -26 0 -91 -59 -101 -92 -8 -24 -23 -39 -56 -56 l-44 -24 45 7 c25 3 70 10
100 13 38 5 70 18 104 41 31 22 69 38 100 42 62 10 96 40 78 69 -6 10 -9 26
-6 34 4 11 13 7 35 -18 34 -40 36 -46 9 -39 -11 3 -20 1 -20 -4 0 -6 -25 -49
-56 -97 l-57 -87 42 -43 c28 -29 41 -50 41 -70 0 -25 3 -28 26 -23 28 5 64
-24 64 -53 0 -23 30 -49 69 -60 l31 -9 0 47 c0 52 19 116 41 137 14 13 69 36
139 57 19 5 39 14 45 19 5 5 14 9 20 9 14 0 51 -82 59 -128 3 -19 19 -46 36
-62 30 -28 38 -54 20 -65 -6 -3 -5 -15 2 -30 13 -29 28 -33 28 -8 0 10 11 26
25 38 l25 20 -15 59 c-9 33 -23 65 -33 73 -14 11 -14 12 -1 8 9 -3 26 3 40 14
23 19 23 20 7 54 -14 29 -23 35 -61 41 -24 4 -52 4 -63 0 -18 -7 -18 -7 -1 13
17 20 17 23 3 46 -17 25 -19 39 -16 145 1 62 1 62 -30 68 -17 4 -45 23 -65 45
-29 32 -35 47 -35 83 0 54 32 104 85 132 30 16 39 26 38 43 -2 12 4 24 12 27
26 11 16 24 -18 24 -19 0 -36 -3 -40 -6z m-129 -79 c61 -30 66 -45 14 -45 -36
0 -38 -1 -48 -46 -10 -44 -10 -46 19 -69 32 -24 32 -63 1 -51 -9 3 -22 6 -30
6 -7 0 -20 15 -28 34 -8 18 -19 37 -25 40 -20 13 -11 45 17 58 34 17 31 30
-10 44 -18 6 -33 15 -35 21 -3 8 36 26 68 32 3 1 29 -10 57 -24z m-483 -25 c3
-5 1 -10 -4 -10 -6 0 -11 5 -11 10 0 6 2 10 4 10 3 0 8 -4 11 -10z m265 -10
c13 -8 13 -13 2 -31 -15 -24 -15 -24 18 -39 22 -9 21 -10 -10 -4 -19 3 -51 6
-72 6 -27 0 -43 7 -63 28 -15 16 -24 33 -21 39 9 14 125 14 146 1z m-179 -84
c4 -41 2 -50 -12 -53 -17 -5 -17 -7 -2 -29 18 -28 41 -31 58 -7 7 9 17 13 23
9 15 -9 27 -77 15 -85 -6 -3 -13 -16 -17 -28 -5 -16 -15 -23 -32 -23 -13 0
-24 5 -24 10 0 6 4 10 10 10 14 0 42 59 36 75 -4 11 -13 10 -45 -6 -48 -23
-51 -23 -51 -4 0 18 -21 20 -38 3 -6 -6 -15 -8 -19 -3 -5 4 -3 10 4 12 7 2 15
21 19 41 4 20 12 44 19 52 6 8 15 23 19 34 5 15 2 17 -14 13 -15 -4 -20 0 -20
15 0 16 6 19 33 16 30 -3 32 -5 38 -52z m233 -37 c6 -5 15 -4 23 2 34 29 59
-24 26 -56 -16 -16 -18 -16 -33 3 -16 19 -17 19 -27 2 -7 -9 -9 -36 -6 -59 5
-33 3 -41 -11 -41 -9 0 -16 6 -16 14 0 8 -9 18 -21 21 -17 6 -20 12 -15 33 4
15 9 40 11 55 3 16 7 33 11 38 6 10 43 3 58 -12z m241 -133 c9 -14 30 -29 48
-35 l31 -11 -35 -36 c-21 -22 -41 -33 -51 -30 -16 4 -17 -1 -12 -35 4 -21 4
-39 0 -39 -11 0 -76 68 -76 80 0 5 11 20 25 32 14 12 25 32 25 44 0 29 10 54
21 54 5 0 16 -11 24 -24z m-135 -135 c0 -6 -4 -13 -10 -16 -22 -14 -10 -55 22
-75 36 -22 30 -26 -47 -34 -91 -9 -116 -17 -126 -42 -10 -28 -36 -41 -51 -26
-15 15 18 71 49 83 23 9 25 13 21 54 -5 37 -3 45 11 45 23 0 41 -20 41 -46 0
-30 10 -54 22 -54 6 0 8 17 4 45 -6 36 -4 45 7 45 8 0 20 7 27 15 14 17 30 20
30 6z"/>
<path d="M2457 1578 c2 -5 11 -8 19 -8 8 0 29 -15 45 -32 26 -28 30 -40 29
-83 -2 -70 -1 -77 10 -70 6 3 10 17 10 31 0 51 37 93 81 94 15 0 31 6 36 13
13 16 23 57 15 58 -42 5 -249 2 -245 -3z"/>
<path d="M4267 1582 c-120 -2 -139 -5 -144 -20 -3 -9 -17 -29 -31 -44 -22 -24
-24 -31 -14 -53 16 -35 57 -32 57 4 0 14 6 26 13 29 16 5 64 -37 56 -50 -3 -5
2 -18 11 -28 18 -20 15 -55 -11 -145 -15 -48 -14 -52 10 -107 27 -62 66 -90
154 -114 40 -11 44 -11 73 17 17 16 42 29 55 29 25 0 33 23 13 36 -6 3 -8 16
-5 29 9 35 -16 50 -53 31 -16 -9 -34 -16 -40 -16 -15 0 -24 57 -12 79 16 29
81 66 112 63 30 -4 47 13 24 22 -8 3 -15 17 -15 31 0 31 34 35 50 5 13 -25 65
-27 74 -4 4 11 13 14 27 11 31 -8 52 2 39 19 -7 7 -18 10 -26 7 -18 -7 -18 -1
2 62 10 30 14 64 10 78 l-6 26 -143 3 c-78 2 -204 2 -280 0z m33 -417 c0 -16
6 -21 27 -20 35 0 44 -30 12 -40 -14 -5 -25 -3 -27 4 -2 6 -8 11 -14 11 -6 0
-21 11 -34 26 -27 28 -32 59 -9 51 8 -4 17 -1 21 5 9 13 24 -10 24 -37z"/>
<path d="M1230 1569 c0 -5 5 -7 10 -4 6 3 10 8 10 11 0 2 -4 4 -10 4 -5 0 -10
-5 -10 -11z"/>
<path d="M3147 1573 c-10 -10 -8 -46 4 -82 l11 -32 32 24 c48 36 126 59 151
44 55 -32 90 -54 122 -79 20 -16 40 -28 44 -28 27 0 -15 -83 -65 -129 -17 -17
-26 -35 -26 -56 0 -33 -31 -72 -48 -61 -5 3 -14 -6 -21 -20 -11 -24 -10 -25
16 -23 16 1 37 -2 47 -6 27 -12 109 77 101 109 -6 19 -5 20 8 4 7 -10 26 -22
40 -27 25 -10 28 -8 42 25 20 48 20 49 -15 101 l-30 44 25 -3 c19 -2 29 3 38
22 7 13 23 30 35 36 13 6 30 21 38 33 8 11 21 21 28 21 8 0 24 8 37 19 21 16
22 22 11 45 -9 20 -19 26 -42 26 -32 0 -36 -9 -20 -41 9 -17 7 -19 -17 -19
-49 0 -73 11 -73 33 0 20 0 20 -22 1 -55 -48 -58 -49 -48 -12 6 18 10 34 10
35 0 2 -25 3 -55 3 -46 0 -55 -3 -55 -17 -1 -17 -1 -17 -14 0 -11 15 -31 17
-148 17 -74 0 -138 -3 -141 -7z"/>
<path d="M706 1517 c-7 -19 -19 -38 -25 -41 -6 -4 -11 -16 -11 -27 0 -31 -47
-67 -93 -73 -164 -20 -179 -17 -135 24 24 22 14 26 -26 10 -16 -6 -26 -17 -26
-30 0 -11 -3 -19 -7 -19 -25 4 -33 -4 -33 -34 0 -35 25 -67 51 -67 8 0 20 -5
26 -11 9 -9 19 -6 39 10 15 11 23 21 19 21 -5 0 0 9 10 20 10 11 27 20 37 20
16 0 11 -11 -28 -55 l-47 -56 43 -44 c36 -37 51 -45 80 -45 28 1 40 8 63 37
17 23 27 30 27 20 0 -24 7 -21 48 22 29 30 47 40 84 45 25 4 51 12 56 19 6 7
11 50 12 97 4 127 6 120 -36 108 -54 -15 -84 -4 -84 31 0 16 -7 34 -15 41 -12
10 -17 6 -29 -23z m-312 -203 c9 -23 8 -24 -14 -24 -19 0 -27 20 -13 33 11 11
20 8 27 -9z m183 -149 c7 -20 0 -27 -20 -19 -9 3 -13 12 -10 20 7 19 22 18 30
-1z"/>
<path d="M3757 1443 c-4 -3 -7 -15 -7 -25 0 -21 53 -48 96 -48 43 0 81 -50 86
-113 2 -28 0 -58 -5 -64 -6 -9 -5 -13 4 -13 8 0 24 -3 37 -6 18 -5 22 -2 22
15 0 12 -5 31 -11 42 -5 11 -12 48 -15 82 -5 61 -4 62 33 94 52 44 27 42 -30
-3 -43 -34 -48 -35 -81 -24 -19 6 -53 24 -75 41 -45 32 -45 32 -54 22z"/>
<path d="M3162 1329 c-15 -23 -8 -71 15 -107 18 -29 12 -37 -15 -23 -31 16
-37 14 -57 -22 -13 -25 -16 -44 -11 -70 6 -33 14 -41 66 -67 33 -17 66 -30 74
-30 8 0 16 -6 18 -12 3 -9 15 -4 36 14 17 14 37 28 44 31 8 2 -5 20 -34 46
-42 38 -46 45 -38 67 6 14 10 45 10 69 0 38 -6 50 -38 85 -44 46 -52 48 -70
19z"/>
<path d="M2575 1268 c-13 -29 -67 -65 -117 -78 -42 -12 -43 -13 -28 -41 16
-28 33 -24 87 25 27 24 60 46 73 48 28 3 41 45 18 59 -19 13 -22 11 -33 -13z"/>
<path d="M4796 1205 c-3 -8 -1 -15 3 -15 5 0 11 7 15 15 3 8 1 15 -3 15 -5 0
-11 -7 -15 -15z"/>
<path d="M1585 1190 c-3 -5 -1 -10 4 -10 6 0 11 5 11 10 0 6 -2 10 -4 10 -3 0
-8 -4 -11 -10z"/>
<path d="M2937 1154 c-3 -4 3 -24 13 -45 27 -52 25 -65 -10 -78 -21 -7 -30
-17 -30 -31 0 -19 4 -21 32 -15 34 8 64 37 74 72 4 15 -3 35 -23 62 -27 39
-42 48 -56 35z"/>
<path d="M3727 1126 c-3 -8 0 -20 8 -26 20 -17 50 -8 50 15 0 25 -49 34 -58
11z"/>
<path d="M1220 1062 c0 -12 19 -26 26 -19 2 2 -2 10 -11 17 -9 8 -15 8 -15 2z"/>
<path d="M4588 1043 c7 -3 16 -2 19 1 4 3 -2 6 -13 5 -11 0 -14 -3 -6 -6z"/>
<path d="M4011 974 c-23 -42 -52 -57 -66 -34 -6 10 -55 14 -55 5 0 -3 14 -34
30 -68 35 -75 37 -110 9 -156 -11 -18 -18 -36 -15 -39 3 -3 34 9 68 26 35 17
82 36 106 43 34 10 42 17 42 36 0 16 6 23 19 23 28 0 53 43 42 73 -8 19 -101
102 -146 129 -6 4 -21 -13 -34 -38z"/>
<path d="M2665 990 c-15 -16 -15 -22 -5 -35 17 -21 37 -19 50 4 25 48 -8 71
-45 31z"/>
<path d="M1430 980 c0 -5 5 -10 10 -10 6 0 10 5 10 10 0 6 -4 10 -10 10 -5 0
-10 -4 -10 -10z"/>
<path d="M3040 940 c-13 -8 -12 -10 3 -10 9 0 20 0 24 -1 4 0 9 4 11 10 5 14
-18 14 -38 1z"/>
<path d="M3256 795 c-15 -35 -12 -65 5 -65 5 0 9 6 10 13 1 6 2 23 2 37 2 18
9 26 25 28 30 5 28 22 -3 22 -19 0 -28 -8 -39 -35z"/>
<path d="M3214 812 c-15 -10 -37 -52 -26 -52 4 0 16 6 26 13 19 14 19 52 0 39z"/>
<path d="M1829 724 c-11 -14 -10 -15 11 -12 13 1 25 9 28 16 5 17 -23 15 -39
-4z"/>
<path d="M2215 653 c-38 -10 -46 -22 -30 -53 14 -27 46 -40 104 -40 l26 -1
-29 -23 c-27 -23 -28 -26 -17 -54 29 -69 76 -81 161 -41 33 16 60 34 60 40 0
6 7 8 15 5 14 -5 16 3 13 52 -3 63 -1 62 -77 41 -43 -12 -44 -12 -70 20 -43
53 -92 69 -156 54z"/>
<path d="M2660 439 c-20 -8 -22 -12 -10 -19 21 -13 24 -13 38 10 13 22 9 24
-28 9z"/>
<path d="M2625 358 c9 -31 36 -52 46 -36 12 19 -7 53 -31 56 -19 3 -21 0 -15
-20z"/>
<path d="M2432 295 c-16 -35 -15 -55 4 -55 8 0 12 5 9 11 -4 5 1 19 10 29 9
10 14 24 10 29 -10 18 -21 13 -33 -14z"/>
<path d="M2476 254 c-10 -27 -7 -31 19 -26 16 3 25 11 25 23 0 23 -35 26 -44
3z"/>
</g>
</svg>
